<svg width="139" height="38" viewBox="0 0 139 38" fill="none" xmlns="http://www.w3.org/2000/svg">
<path d="M2.656 31V8.6H7.84V26.776H19.072V31H2.656ZM30.0668 31.256C28.1041 31.256 26.3761 30.872 24.8828 30.104C23.4108 29.336 22.2694 28.2907 21.4588 26.968C20.6481 25.624 20.2428 24.0987 20.2428 22.392C20.2428 20.664 20.6374 19.1387 21.4268 17.816C22.2374 16.472 23.3361 15.4267 24.7228 14.68C26.1094 13.912 27.6774 13.528 29.4268 13.528C31.1121 13.528 32.6268 13.8907 33.9708 14.616C35.3361 15.32 36.4134 16.344 37.2028 17.688C37.9921 19.0107 38.3868 20.6 38.3868 22.456C38.3868 22.648 38.3761 22.872 38.3548 23.128C38.3334 23.3627 38.3121 23.5867 38.2908 23.8H24.3068V20.888H35.6667L33.7468 21.752C33.7468 20.856 33.5654 20.0773 33.2028 19.416C32.8401 18.7547 32.3388 18.2427 31.6988 17.88C31.0588 17.496 30.3121 17.304 29.4588 17.304C28.6054 17.304 27.8481 17.496 27.1868 17.88C26.5468 18.2427 26.0454 18.7653 25.6828 19.448C25.3201 20.1093 25.1388 20.8987 25.1388 21.816V22.584C25.1388 23.5227 25.3414 24.3547 25.7468 25.08C26.1734 25.784 26.7601 26.328 27.5068 26.712C28.2748 27.0747 29.1708 27.256 30.1948 27.256C31.1121 27.256 31.9121 27.1173 32.5948 26.84C33.2988 26.5627 33.9388 26.1467 34.5148 25.592L37.1708 28.472C36.3814 29.368 35.3894 30.0613 34.1948 30.552C33.0001 31.0213 31.6241 31.256 30.0668 31.256ZM51.8015 31V27.64L51.4815 26.904V20.888C51.4815 19.8213 51.1508 18.9893 50.4895 18.392C49.8495 17.7947 48.8575 17.496 47.5135 17.496C46.5962 17.496 45.6895 17.6453 44.7935 17.944C43.9188 18.2213 43.1722 18.6053 42.5535 19.096L40.7615 15.608C41.7002 14.9467 42.8308 14.4347 44.1535 14.072C45.4762 13.7093 46.8202 13.528 48.1855 13.528C50.8095 13.528 52.8468 14.1467 54.2975 15.384C55.7482 16.6213 56.4735 18.552 56.4735 21.176V31H51.8015ZM46.5535 31.256C45.2095 31.256 44.0575 31.032 43.0975 30.584C42.1375 30.1147 41.4015 29.4853 40.8895 28.696C40.3775 27.9067 40.1215 27.0213 40.1215 26.04C40.1215 25.016 40.3668 24.12 40.8575 23.352C41.3695 22.584 42.1695 21.9867 43.2575 21.56C44.3455 21.112 45.7642 20.888 47.5135 20.888H52.0895V23.8H48.0575C46.8842 23.8 46.0735 23.992 45.6255 24.376C45.1988 24.76 44.9855 25.24 44.9855 25.816C44.9855 26.456 45.2308 26.968 45.7215 27.352C46.2335 27.7147 46.9268 27.896 47.8015 27.896C48.6335 27.896 49.3802 27.704 50.0415 27.32C50.7028 26.9147 51.1828 26.328 51.4815 25.56L52.2495 27.864C51.8868 28.9733 51.2255 29.816 50.2655 30.392C49.3055 30.968 48.0682 31.256 46.5535 31.256ZM68.5085 31.256C66.8872 31.256 65.4258 30.8933 64.1245 30.168C62.8232 29.4213 61.7885 28.3867 61.0205 27.064C60.2738 25.7413 59.9005 24.184 59.9005 22.392C59.9005 20.5787 60.2738 19.0107 61.0205 17.688C61.7885 16.3653 62.8232 15.3413 64.1245 14.616C65.4258 13.8907 66.8872 13.528 68.5085 13.528C69.9592 13.528 71.2285 13.848 72.3165 14.488C73.4045 15.128 74.2472 16.0987 74.8445 17.4C75.4418 18.7013 75.7405 20.3653 75.7405 22.392C75.7405 24.3973 75.4525 26.0613 74.8765 27.384C74.3005 28.6853 73.4685 29.656 72.3805 30.296C71.3138 30.936 70.0232 31.256 68.5085 31.256ZM69.3725 27.16C70.1832 27.16 70.9192 26.968 71.5805 26.584C72.2418 26.2 72.7645 25.656 73.1485 24.952C73.5538 24.2267 73.7565 23.3733 73.7565 22.392C73.7565 21.3893 73.5538 20.536 73.1485 19.832C72.7645 19.128 72.2418 18.584 71.5805 18.2C70.9192 17.816 70.1832 17.624 69.3725 17.624C68.5405 17.624 67.7938 17.816 67.1325 18.2C66.4712 18.584 65.9378 19.128 65.5325 19.832C65.1485 20.536 64.9565 21.3893 64.9565 22.392C64.9565 23.3733 65.1485 24.2267 65.5325 24.952C65.9378 25.656 66.4712 26.2 67.1325 26.584C67.7938 26.968 68.5405 27.16 69.3725 27.16ZM73.8845 31V27.48L73.9805 22.36L73.6605 17.272V7.256H78.6525V31H73.8845ZM128.067 31.256C126.104 31.256 124.376 30.872 122.883 30.104C121.411 29.336 120.269 28.2907 119.459 26.968C118.648 25.624 118.243 24.0987 118.243 22.392C118.243 20.664 118.637 19.1387 119.427 17.816C120.237 16.472 121.336 15.4267 122.723 14.68C124.109 13.912 125.677 13.528 127.427 13.528C129.112 13.528 130.627 13.8907 131.971 14.616C133.336 15.32 134.413 16.344 135.203 17.688C135.992 19.0107 136.387 20.6 136.387 22.456C136.387 22.648 136.376 22.872 136.355 23.128C136.333 23.3627 136.312 23.5867 136.291 23.8H122.307V20.888H133.667L131.747 21.752C131.747 20.856 131.565 20.0773 131.203 19.416C130.84 18.7547 130.339 18.2427 129.699 17.88C129.059 17.496 128.312 17.304 127.459 17.304C126.605 17.304 125.848 17.496 125.187 17.88C124.547 18.2427 124.045 18.7653 123.683 19.448C123.32 20.1093 123.139 20.8987 123.139 21.816V22.584C123.139 23.5227 123.341 24.3547 123.747 25.08C124.173 25.784 124.76 26.328 125.507 26.712C126.275 27.0747 127.171 27.256 128.195 27.256C129.112 27.256 129.912 27.1173 130.595 26.84C131.299 26.5627 131.939 26.1467 132.515 25.592L135.171 28.472C134.381 29.368 133.389 30.0613 132.195 30.552C131 31.0213 129.624 31.256 128.067 31.256Z" fill="#FFB703"/>
<path d="M97.2763 30.8625V16.9375L87.5838 30.8625H84V11.1375H87.4475V25.0275L97.14 11.1362H100.724V25.0612L110.45 11.1375H114V30.865H110.588V16.9375L100.894 30.8625H97.2763Z" fill="white"/>
</svg>
